<?xml version="1.0" encoding="UTF-8" standalone="no"?>
<!DOCTYPE svg PUBLIC "-//W3C//DTD SVG 1.1//EN"
 "http://www.w3.org/Graphics/SVG/1.1/DTD/svg11.dtd">
<!-- Generated by graphviz version 2.49.3 (0)
 -->
<!-- Title: G Pages: 1 -->
<svg width="458pt" height="188pt"
 viewBox="0.00 0.00 458.00 188.00" xmlns="http://www.w3.org/2000/svg" xmlns:xlink="http://www.w3.org/1999/xlink">
<g id="graph0" class="graph" transform="scale(1 1) rotate(0) translate(4 184)">
<title>G</title>
<polygon fill="#1d212c" stroke="transparent" points="-4,4 -4,-184 454,-184 454,4 -4,4"/>
<!-- deps -->
<g id="node1" class="node">
<title>deps</title>
<ellipse fill="none" stroke="lightgray" cx="347" cy="-90" rx="73.39" ry="18"/>
<text text-anchor="middle" x="347" y="-86.3" font-family="Times,serif" font-size="14.00" fill="white">mycrate&#45;deps</text>
</g>
<!-- mycrate -->
<g id="node4" class="node">
<title>mycrate</title>
<ellipse fill="none" stroke="lightgray" cx="226" cy="-18" rx="48.99" ry="18"/>
<text text-anchor="middle" x="226" y="-14.3" font-family="Times,serif" font-size="14.00" fill="white">mycrate</text>
</g>
<!-- deps&#45;&gt;mycrate -->
<g id="edge2" class="edge">
<title>deps&#45;&gt;mycrate</title>
<path fill="none" stroke="lightgray" d="M319.54,-73.12C301.93,-62.92 278.92,-49.61 260.13,-38.74"/>
<polygon fill="lightgray" stroke="lightgray" points="261.69,-35.61 251.28,-33.63 258.19,-41.66 261.69,-35.61"/>
</g>
<!-- lock -->
<g id="node2" class="node">
<title>lock</title>
<polygon fill="none" stroke="lightgray" points="450,-180 286,-180 286,-144 450,-144 450,-180"/>
<text text-anchor="middle" x="368" y="-158.3" font-family="Times,serif" font-size="14.00" fill="white">./mycrate/Cargo.lock</text>
</g>
<!-- lock&#45;&gt;deps -->
<g id="edge1" class="edge">
<title>lock&#45;&gt;deps</title>
<path fill="none" stroke="lightgray" d="M362.81,-143.7C360.47,-135.9 357.65,-126.51 355.05,-117.83"/>
<polygon fill="lightgray" stroke="lightgray" points="358.36,-116.68 352.13,-108.1 351.65,-118.69 358.36,-116.68"/>
</g>
<!-- migrations -->
<g id="node3" class="node">
<title>migrations</title>
<polygon fill="none" stroke="lightgray" points="166,-180 0,-180 0,-144 166,-144 166,-180"/>
<text text-anchor="middle" x="83" y="-158.3" font-family="Times,serif" font-size="14.00" fill="white">./mycrate/migrations</text>
</g>
<!-- sqlx -->
<g id="node5" class="node">
<title>sqlx</title>
<ellipse fill="none" stroke="lightgray" cx="106" cy="-90" rx="68.79" ry="18"/>
<text text-anchor="middle" x="106" y="-86.3" font-family="Times,serif" font-size="14.00" fill="white">sqlx&#45;prepare</text>
</g>
<!-- migrations&#45;&gt;sqlx -->
<g id="edge4" class="edge">
<title>migrations&#45;&gt;sqlx</title>
<path fill="none" stroke="lightgray" d="M88.69,-143.7C91.25,-135.9 94.33,-126.51 97.18,-117.83"/>
<polygon fill="lightgray" stroke="lightgray" points="100.58,-118.7 100.38,-108.1 93.93,-116.51 100.58,-118.7"/>
</g>
<!-- src -->
<g id="node6" class="node">
<title>src</title>
<polygon fill="none" stroke="lightgray" points="268,-180 184,-180 184,-144 268,-144 268,-180"/>
<text text-anchor="middle" x="226" y="-158.3" font-family="Times,serif" font-size="14.00" fill="white">./mycrate</text>
</g>
<!-- migrations&#45;&gt;src -->
<g id="edge6" class="edge">
<title>migrations&#45;&gt;src</title>
<path fill="none" stroke="lightgray" d="M166.23,-162C168.73,-162 171.22,-162 173.72,-162"/>
<polygon fill="lightgray" stroke="lightgray" points="173.97,-165.5 183.97,-162 173.97,-158.5 173.97,-165.5"/>
</g>
<!-- sqlx&#45;&gt;mycrate -->
<g id="edge5" class="edge">
<title>sqlx&#45;&gt;mycrate</title>
<path fill="none" stroke="lightgray" d="M132.93,-73.29C150.39,-63.11 173.28,-49.75 191.99,-38.84"/>
<polygon fill="lightgray" stroke="lightgray" points="193.93,-41.76 200.8,-33.7 190.4,-35.72 193.93,-41.76"/>
</g>
<!-- src&#45;&gt;lock -->
<g id="edge3" class="edge">
<title>src&#45;&gt;lock</title>
<path fill="none" stroke="lightgray" d="M278.3,-162C280.77,-162 283.24,-162 285.71,-162"/>
<polygon fill="lightgray" stroke="lightgray" points="278.16,-158.5 268.16,-162 278.16,-165.5 278.16,-158.5"/>
</g>
<!-- src&#45;&gt;mycrate -->
<g id="edge7" class="edge">
<title>src&#45;&gt;mycrate</title>
<path fill="none" stroke="lightgray" d="M226,-143.87C226,-119.67 226,-75.21 226,-46.39"/>
<polygon fill="lightgray" stroke="lightgray" points="229.5,-46.19 226,-36.19 222.5,-46.19 229.5,-46.19"/>
</g>
</g>
</svg>
