<?xml version="1.0" encoding="UTF-8" standalone="no"?>
<!DOCTYPE svg PUBLIC "-//W3C//DTD SVG 1.1//EN"
 "http://www.w3.org/Graphics/SVG/1.1/DTD/svg11.dtd">
<!-- Generated by graphviz version 2.49.3 (0)
 -->
<!-- Title: G Pages: 1 -->
<svg width="330pt" height="188pt"
 viewBox="0.00 0.00 329.99 188.00" xmlns="http://www.w3.org/2000/svg" xmlns:xlink="http://www.w3.org/1999/xlink">
<g id="graph0" class="graph" transform="scale(1 1) rotate(0) translate(4 184)">
<title>G</title>
<polygon fill="#1d212c" stroke="transparent" points="-4,4 -4,-184 325.99,-184 325.99,4 -4,4"/>
<!-- crates.io sources -->
<g id="node1" class="node">
<title>crates.io sources</title>
<polygon fill="none" stroke="lightgray" points="252.85,-180 115.85,-180 115.85,-144 252.85,-144 252.85,-180"/>
<text text-anchor="middle" x="184.35" y="-158.3" font-family="Times,serif" font-size="14.00" fill="white">crates.io sources</text>
</g>
<!-- deps -->
<g id="node3" class="node">
<title>deps</title>
<ellipse fill="none" stroke="lightgray" cx="184.35" cy="-90" rx="32.49" ry="18"/>
<text text-anchor="middle" x="184.35" y="-86.3" font-family="Times,serif" font-size="14.00" fill="white">deps</text>
</g>
<!-- crates.io sources&#45;&gt;deps -->
<g id="edge1" class="edge">
<title>crates.io sources&#45;&gt;deps</title>
<path fill="none" stroke="lightgray" d="M184.35,-143.7C184.35,-135.98 184.35,-126.71 184.35,-118.11"/>
<polygon fill="lightgray" stroke="lightgray" points="187.85,-118.1 184.35,-108.1 180.85,-118.1 187.85,-118.1"/>
</g>
<!-- src -->
<g id="node2" class="node">
<title>src</title>
<polygon fill="none" stroke="lightgray" points="134.35,-108 80.35,-108 80.35,-72 134.35,-72 134.35,-108"/>
<text text-anchor="middle" x="107.35" y="-86.3" font-family="Times,serif" font-size="14.00" fill="white">src</text>
</g>
<!-- clippy -->
<g id="node4" class="node">
<title>clippy</title>
<ellipse fill="none" stroke="lightgray" cx="38.35" cy="-18" rx="38.19" ry="18"/>
<text text-anchor="middle" x="38.35" y="-14.3" font-family="Times,serif" font-size="14.00" fill="white">clippy</text>
</g>
<!-- src&#45;&gt;clippy -->
<g id="edge2" class="edge">
<title>src&#45;&gt;clippy</title>
<path fill="none" stroke="lightgray" d="M90.29,-71.7C81.47,-62.75 70.59,-51.71 61.07,-42.06"/>
<polygon fill="lightgray" stroke="lightgray" points="63.31,-39.34 53.79,-34.67 58.32,-44.25 63.31,-39.34"/>
</g>
<!-- my&#45;crate -->
<g id="node5" class="node">
<title>my&#45;crate</title>
<ellipse fill="none" stroke="lightgray" cx="146.35" cy="-18" rx="51.99" ry="18"/>
<text text-anchor="middle" x="146.35" y="-14.3" font-family="Times,serif" font-size="14.00" fill="white">my&#45;crate</text>
</g>
<!-- src&#45;&gt;my&#45;crate -->
<g id="edge3" class="edge">
<title>src&#45;&gt;my&#45;crate</title>
<path fill="none" stroke="lightgray" d="M116.99,-71.7C121.47,-63.64 126.91,-53.89 131.87,-44.98"/>
<polygon fill="lightgray" stroke="lightgray" points="135.01,-46.54 136.82,-36.1 128.89,-43.14 135.01,-46.54"/>
</g>
<!-- coverage -->
<g id="node6" class="node">
<title>coverage</title>
<ellipse fill="none" stroke="lightgray" cx="269.35" cy="-18" rx="52.79" ry="18"/>
<text text-anchor="middle" x="269.35" y="-14.3" font-family="Times,serif" font-size="14.00" fill="white">coverage</text>
</g>
<!-- src&#45;&gt;coverage -->
<g id="edge4" class="edge">
<title>src&#45;&gt;coverage</title>
<path fill="none" stroke="lightgray" d="M134.42,-76.06C137.42,-74.67 140.44,-73.3 143.35,-72 171.18,-59.58 202.81,-46.28 227.41,-36.11"/>
<polygon fill="lightgray" stroke="lightgray" points="228.9,-39.28 236.81,-32.24 226.23,-32.81 228.9,-39.28"/>
</g>
<!-- deps&#45;&gt;clippy -->
<g id="edge5" class="edge">
<title>deps&#45;&gt;clippy</title>
<path fill="none" stroke="lightgray" d="M160.56,-77.6C136.93,-66.27 100.41,-48.76 73.44,-35.83"/>
<polygon fill="lightgray" stroke="lightgray" points="74.87,-32.63 64.34,-31.46 71.84,-38.94 74.87,-32.63"/>
</g>
<!-- deps&#45;&gt;my&#45;crate -->
<g id="edge6" class="edge">
<title>deps&#45;&gt;my&#45;crate</title>
<path fill="none" stroke="lightgray" d="M175.34,-72.41C170.86,-64.16 165.35,-54.01 160.34,-44.78"/>
<polygon fill="lightgray" stroke="lightgray" points="163.4,-43.07 155.55,-35.96 157.25,-46.41 163.4,-43.07"/>
</g>
<!-- deps&#45;&gt;coverage -->
<g id="edge7" class="edge">
<title>deps&#45;&gt;coverage</title>
<path fill="none" stroke="lightgray" d="M201.96,-74.5C213.56,-64.95 228.97,-52.25 242.13,-41.41"/>
<polygon fill="lightgray" stroke="lightgray" points="244.48,-44.01 249.98,-34.95 240.03,-38.61 244.48,-44.01"/>
</g>
</g>
</svg>
