<?xml version="1.0" encoding="UTF-8" standalone="no"?>
<!DOCTYPE svg PUBLIC "-//W3C//DTD SVG 1.1//EN"
 "http://www.w3.org/Graphics/SVG/1.1/DTD/svg11.dtd">
<!-- Generated by graphviz version 2.49.3 (0)
 -->
<!-- Title: G Pages: 1 -->
<svg width="449pt" height="116pt"
 viewBox="0.00 0.00 449.50 116.00" xmlns="http://www.w3.org/2000/svg" xmlns:xlink="http://www.w3.org/1999/xlink">
<g id="graph0" class="graph" transform="scale(1 1) rotate(0) translate(4 112)">
<title>G</title>
<polygon fill="#1d212c" stroke="transparent" points="-4,4 -4,-112 445.5,-112 445.5,4 -4,4"/>
<!-- crates.io sources -->
<g id="node1" class="node">
<title>crates.io sources</title>
<polygon fill="none" stroke="lightgray" points="137,-108 0,-108 0,-72 137,-72 137,-108"/>
<text text-anchor="middle" x="68.5" y="-86.3" font-family="Times,serif" font-size="14.00" fill="white">crates.io sources</text>
</g>
<!-- deps -->
<g id="node2" class="node">
<title>deps</title>
<ellipse fill="none" stroke="lightgray" cx="68.5" cy="-18" rx="32.49" ry="18"/>
<text text-anchor="middle" x="68.5" y="-14.3" font-family="Times,serif" font-size="14.00" fill="white">deps</text>
</g>
<!-- crates.io sources&#45;&gt;deps -->
<g id="edge1" class="edge">
<title>crates.io sources&#45;&gt;deps</title>
<path fill="none" stroke="lightgray" d="M68.5,-71.7C68.5,-63.98 68.5,-54.71 68.5,-46.11"/>
<polygon fill="lightgray" stroke="lightgray" points="72,-46.1 68.5,-36.1 65,-46.1 72,-46.1"/>
</g>
<!-- clippy -->
<g id="node4" class="node">
<title>clippy</title>
<ellipse fill="none" stroke="lightgray" cx="157.5" cy="-18" rx="38.19" ry="18"/>
<text text-anchor="middle" x="157.5" y="-14.3" font-family="Times,serif" font-size="14.00" fill="white">clippy</text>
</g>
<!-- deps&#45;&gt;clippy -->
<g id="edge5" class="edge">
<title>deps&#45;&gt;clippy</title>
<path fill="none" stroke="lightgray" d="M101.18,-18C103.65,-18 106.13,-18 108.6,-18"/>
<polygon fill="lightgray" stroke="lightgray" points="108.78,-21.5 118.78,-18 108.78,-14.5 108.78,-21.5"/>
</g>
<!-- src -->
<g id="node3" class="node">
<title>src</title>
<polygon fill="none" stroke="lightgray" points="293.5,-108 239.5,-108 239.5,-72 293.5,-72 293.5,-108"/>
<text text-anchor="middle" x="266.5" y="-86.3" font-family="Times,serif" font-size="14.00" fill="white">src</text>
</g>
<!-- src&#45;&gt;clippy -->
<g id="edge2" class="edge">
<title>src&#45;&gt;clippy</title>
<path fill="none" stroke="lightgray" d="M239.84,-71.88C224.09,-61.77 204.12,-48.94 187.79,-38.45"/>
<polygon fill="lightgray" stroke="lightgray" points="189.44,-35.35 179.14,-32.9 185.66,-41.24 189.44,-35.35"/>
</g>
<!-- my&#45;crate -->
<g id="node5" class="node">
<title>my&#45;crate</title>
<ellipse fill="none" stroke="lightgray" cx="389.5" cy="-18" rx="51.99" ry="18"/>
<text text-anchor="middle" x="389.5" y="-14.3" font-family="Times,serif" font-size="14.00" fill="white">my&#45;crate</text>
</g>
<!-- src&#45;&gt;my&#45;crate -->
<g id="edge3" class="edge">
<title>src&#45;&gt;my&#45;crate</title>
<path fill="none" stroke="lightgray" d="M293.8,-73.46C311.76,-63.24 335.43,-49.77 354.74,-38.78"/>
<polygon fill="lightgray" stroke="lightgray" points="356.58,-41.76 363.54,-33.77 353.12,-35.68 356.58,-41.76"/>
</g>
<!-- coverage -->
<g id="node6" class="node">
<title>coverage</title>
<ellipse fill="none" stroke="lightgray" cx="266.5" cy="-18" rx="52.79" ry="18"/>
<text text-anchor="middle" x="266.5" y="-14.3" font-family="Times,serif" font-size="14.00" fill="white">coverage</text>
</g>
<!-- src&#45;&gt;coverage -->
<g id="edge4" class="edge">
<title>src&#45;&gt;coverage</title>
<path fill="none" stroke="lightgray" d="M266.5,-71.7C266.5,-63.98 266.5,-54.71 266.5,-46.11"/>
<polygon fill="lightgray" stroke="lightgray" points="270,-46.1 266.5,-36.1 263,-46.1 270,-46.1"/>
</g>
<!-- clippy&#45;&gt;coverage -->
<g id="edge6" class="edge">
<title>clippy&#45;&gt;coverage</title>
<path fill="none" stroke="lightgray" d="M196.25,-18C198.72,-18 201.19,-18 203.66,-18"/>
<polygon fill="lightgray" stroke="lightgray" points="203.81,-21.5 213.81,-18 203.81,-14.5 203.81,-21.5"/>
</g>
<!-- coverage&#45;&gt;my&#45;crate -->
<g id="edge7" class="edge">
<title>coverage&#45;&gt;my&#45;crate</title>
<path fill="none" stroke="lightgray" d="M319.35,-18C321.99,-18 324.63,-18 327.26,-18"/>
<polygon fill="lightgray" stroke="lightgray" points="327.44,-21.5 337.44,-18 327.44,-14.5 327.44,-21.5"/>
</g>
</g>
</svg>
